<?xml version="1.0" encoding="utf-8"?>
<!-- Generator: Adobe Illustrator 22.0.1, SVG Export Plug-In . SVG Version: 6.00 Build 0)  -->
<svg version="1.1" id="Layer_1" xmlns="http://www.w3.org/2000/svg" xmlns:xlink="http://www.w3.org/1999/xlink" x="0px" y="0px"
	 viewBox="0 0 268 336" style="enable-background:new 0 0 268 336;" xml:space="preserve">
<style type="text/css">
	.st0{fill:#FFFFFF;}
</style>
<g transform="translate(0.000000,336.000000) scale(0.100000,-0.100000)">
	<path class="st0" d="M1340,3224c-65-51-122-109-136-139c-8-16-22-41-31-55c-16-22-16-24-1-12c14,12,16,10,11-10c-5-19-3-21,8-10
		c7,6,21,12,31,12s26,5,36,11c28,17,105-1,117-28c9-22,53-48,63-38c3,3-4,12-16,21c-12,8-20,19-17,24c3,4-2,10-10,14
		c-18,7-10,30,21,62c26,25,31,44,13,44c-8,0-8,5,1,15c7,8,25,15,40,15c23,0,29-5,34-31c3-19,10-28,17-23c6,3,15,0,20-7c6-9,7,2,4,29
		c-4,33-2,42,10,42c8,0,16-3,17-7c1-9,8-60,10-86c2-13,8-17,23-12c37,11,50,10,50-5c0-8,4-21,8-27c5-7,5-18,1-25c-5-8-2-9,9-5
		c10,3,17,2,17-3c0-17,26-11,45,10c23,25,39,26,32,1c-3-14,0-17,14-14c11,3,19,12,19,19c0,11,11,13,45,9c30-4,57-1,78,9
		c32,15,73,16,95,2c7-4,16-21,21-39c7-24,9-27,10-10c2,34,17,36,44,3c16-19,35-30,51-30c35,0,34-25-1-42c-17-8-40-35-57-68l-29-55
		l71,75l72,75l13-25c7-14,22-29,35-35c31-14,28-21-18-50c-24-15-38-30-34-37s3-8-4-4s-33-8-59-25l-47-33l21,30c12,16,35,42,52,58
		c30,29,39,46,23,46c-15,0-85-93-98-129c-15-44-8-58,14-32c9,11,51,29,92,40l75,21l67-26c41-16,77-37,93-56c29-34,34-18,10,39
		c-8,19-15,45-15,57c-1,14-15,30-43,48c-119,77-147,99-147,117c0,13-12,22-46,31c-25,7-67,31-94,52c-65,51-106,63-157,44
		c-43-16-173-29-173-17c0,4,11,18,25,31c13,12,22,27,19,31c-12,20-32,6-53-36c-25-51-47-57-62-19c-11,31-14,28,35,48
		c29,12,37,19,28,28c-8,8-19,5-43-10l-32-20l-16,31c-9,17-23,34-31,38c-59,31-164,69-205,74C1381,3250,1371,3248,1340,3224z
		 M1537,3192c7-4-7-8-30-9c-65-2-118-14-116-27c4-29-2-56-15-68c-51-48-57-51-98-37c-71,23-72,56,0,86c17,7,32,17,32,22
		c0,8,61,37,95,44C1431,3209,1520,3201,1537,3192z M1637,3125c7-21-27-59-41-45c-6,6-4,16,7,28c9,10,14,22,10,25c-3,4-1,7,6,7
		C1625,3140,1633,3133,1637,3125z M2358,2797c6-5,12-13,12-17c0-12-83-22-90-11c-3,6-20,11-38,13c-18,1-31,7-29,13
		C2221,2819,2328,2821,2358,2797z"/>
	<path class="st0" d="M1273,3108c-37-23-41-34-14-41c11-3,33,8,57,29c37,32,38,33,14,33C1316,3129,1290,3119,1273,3108z"/>
	<path class="st0" d="M1473,3093c-7-3-13-10-13-16s-7-19-17-29c-15-17-15-18,0-18c13,0,15-6,11-30c-4-19-2-30,5-30c10,0,13,8,16,51
		c0,9,6,24,14,32C1503,3071,1492,3099,1473,3093z"/>
	<path class="st0" d="M1136,2955c-16-41-16-49-2-105c14-53,14-65,2-88c-12-24-12-31,6-67c32-62,58-96,84-105c20-8,22-13,15-38
		c-5-15-16-42-25-60c-37-72-11-240,55-357c32-57,34-64,31-146c-2-47,1-95,6-105c6-11,14-28,18-39c7-20,7-20,11,0c12,62,14,65,38,65
		c13,0,35-4,49-10c24-9,26-8,26,21c0,26-2,28-18,20c-11-6-27-9-38-9c-10,1-29-2-41-6s-24-2-28,4c-3,5-1,10,6,10c8,0,10,17,7,55
		c-5,59-2,63,28,40c24-18,34-19,34-1c0,8-10,17-22,20c-13,3-31,17-41,31l-18,25l48-19c59-22,127-36,119-23c-3,5-25,12-48,14
		c-24,3-66,19-95,37c-41,25-55,41-69,77c-10,25-17,53-17,62c1,9-5,34-13,55c-17,45-18,71-3,61c8-5,8-1,0,14c-13,24-15,96-2,88
		c4-3,18-33,30-66s27-60,33-60s17-8,25-17c16-19-3,13-35,57c-18,25-28,140-12,140c5,0,11,8,15,18c3,9,17,25,31,36c26,18,26,18,20-2
		c-7-22-9-22,98-25c43-1,61,2,64,12s0,12-14,7c-15-6-14-2,5,18c14,14,21,29,18,33c-4,3-7,1-7-5c0-19-83-62-108-55c-12,3-22,10-22,17
		c0,17-37,37-56,29c-9-3-20,0-24,7c-6,9-10,7-15-9c-3-11-13-21-21-21c-17,0-66,49-59,60c2,4-9,16-24,28c-36,26-46,69-19,83
		c14,8,25,5,44-10s35-19,58-15c17,3,40,6,51,7s26,8,33,15c7,6,25,12,40,12c21,0,24,2,12,10c-13,9-13,11,0,20c8,5,21,10,28,10
		c6,0,12,5,12,10c0,14-6,13-43-7c-74-40-148-53-193-36c-16,6-16,7,2,14c16,6,14,9-17,23c-20,8-39,23-43,31c-5,14-1,15,27,10
		c17-4,37-11,43-16s15-5,19-1c5,4,6,2,2-3c-8-15,9-39,22-31c14,9,14,43,1,51c-7,4-6,13,1,26c8,16,7,20-3,18c-31-6-108,14-108,27
		c0,11,9,13,40,8c37-6,40-5,40,17c0,19-2,21-10,9c-6-10-10-11-10-2c0,6-6,12-14,12s-16,7-20,15C1166,3011,1153,3001,1136,2955z
		 M1198,2882c2-7-6-12-17-12c-21,0-27,11-14,24C1176,2903,1193,2896,1198,2882z M1238,2872c2-7-3-12-12-12s-16,7-16,16
		C1210,2893,1232,2890,1238,2872z"/>
	<path class="st0" d="M1280,2990c-8-5-12-12-8-15c9-9,48,4,48,16S1299,3002,1280,2990z"/>
	<path class="st0" d="M1621,2968c-14-23-14-23,8-4c25,23,26,19,5-23c-10-20-14-44-10-62c5-28,4-30-17-23c-21,6-21,5,3-14
		c25-20,74-21,85-1c3,4,12,6,19,3c8-3,17,0,22,7c4,8,3,10-4,5c-7-4-12-2-12,3c0,6,5,11,11,11s9,12,8,28c-2,15,3,38,11,52
		c11,22,11,23-1,13c-11-9-23-7-54,7C1644,2995,1638,2995,1621,2968z M1698,2910c3-42-10-65-32-57c-16,7-22,51-10,82
		C1667,2964,1695,2948,1698,2910z"/>
	<path class="st0" d="M1565,2920c-16-11-25-20-20-20c10,0,64,39,55,40C1597,2940,1582,2931,1565,2920z"/>
	<path class="st0" d="M1960,2863c0-16-3-39-6-53c-5-24-5-24,10-6c18,22,22,86,6,86C1965,2890,1960,2878,1960,2863z"/>
	<path class="st0" d="M1335,2869c-10-15,1-23,20-15c9,3,13,10,10,16C1357,2883,1343,2883,1335,2869z"/>
	<path class="st0" d="M1297,2863c-13-12-7-33,8-33c8,0,15,9,15,20C1320,2870,1309,2876,1297,2863z"/>
	<path class="st0" d="M1520,2792c0-11-9-30-20-43l-21-24l-15,23c-20,27-40,29-47,3c-3-13,0-17,12-15c16,4,81-48,81-64s58-64,69-58
		c17,11,13,39-4,32c-10-3-24,8-40,32c-30,44-31,54-6,69c13,8,18,19,14,33C1536,2808,1520,2816,1520,2792z"/>
	<path class="st0" d="M1593,2790c-13-5-23-17-23-26c0-11,5-14,16-10c9,3,19,6,24,6c4,0,10,9,13,20C1629,2802,1626,2803,1593,2790z"
		/>
	<path class="st0" d="M1956,2728c3-24,18-67,32-96c21-43,24-57,15-72c-19-29-1-33,18-3c10,15,42,40,71,55c42,22,66,28,118,28
		c103,0,220-66,220-124c0-16,7-27,20-31c11-3,20-13,20-21c0-9,12-40,26-71c20-42,24-57,14-63c-9-6-8-11,6-19c13-8,15-14,7-17
		c-7-3-9-12-7-19c4-9-3-16-20-21c-14-3-24-10-21-14s-3-14-12-21c-14-12-16-12-8,1c6,12,5,13-5,3c-8-7-15-19-16-27c-2-17-45-76-55-76
		c-4,0-9-9-12-20c-9-33,7-23,69,43c32,34,68,69,79,77c26,19,50,90,40,121c-17,55-96,209-105,204c-6-4-10,8-10,28c0,57-61,96-184,118
		c-77,13-131,1-170-37l-26-27v67c0,42-4,65-10,61c-5-3-10-41-10-83v-77l-32,32c-26,26-32,41-36,87c-2,31-8,56-13,56
		S1952,2751,1956,2728z"/>
	<path class="st0" d="M1621,2722c-14-26-14-65-1-57c6,4,8,10,5,15s-1,19,5,31c7,11,9,23,7,26C1634,2739,1627,2733,1621,2722z"/>
	<path class="st0" d="M1193,2710c-1-12,3-17,12-14c7,3,21-6,30-19c23-36,43-41,37-11c-2,13-9,21-14,18s-22,5-37,20
		C1197,2727,1194,2728,1193,2710z"/>
	<path class="st0" d="M1377,2718c-10-5-25-7-33-4s-14-1-14-9c0-7-8-15-17-17s-17-13-18-25c-2-28,11-30,18-3c6,25,35,26,44,3
		c16-42,30-45,77-16c44,27,58,43,36,43c-5,0-10-4-10-8c0-9-53-42-69-42c-6,0-15,9-21,20c-9,17-7,24,12,40
		C1408,2721,1404,2734,1377,2718z"/>
	<path class="st0" d="M1750,2663c0-11,10-28,21-39l22-19l-18,35C1752,2685,1750,2687,1750,2663z"/>
	<path class="st0" d="M1832,2622c9-12,39-40,68-62s59-49,68-61c13-20,16-20,24-4c6,9,8,18,6,20c-1,1-30,19-63,40s-73,49-89,64
		C1820,2642,1818,2643,1832,2622z"/>
	<path class="st0" d="M2095,2577c-33-15-64-47-47-47c6,0,9-7,5-16c-5-14-3-14,16-3c11,8,21,19,21,26c0,6,8,14,18,17
		c31,9,132-1,149-15c9-8,18-12,20-10c7,6,63-21,63-30c0-5,5-9,12-9c6,0,19-7,28-15c16-14,18-14,23,4c6,23-9,34-102,75
		C2227,2587,2139,2597,2095,2577z"/>
	<path class="st0" d="M1711,2534c-19-14-25-14-31-3c-7,10-12,10-23,1c-8-7-21-10-29-7c-12,5-14,0-11-18c4-20,0-25-26-30
		c-47-10-42-45,16-101c43-43,73-61,57-34c-4,7-3,8,5,4c18-11,58,1,80,25l20,22l-5-46c-3-25-1-62,5-81c11-44,4-79-16-72
		c-16,6-10-7,15-36c14-17,12-18-20-18c-43,0-53-9-30-26c23-18,37-17,22,1c-10,12-8,14,12,13c44-2,47,1,42,39c-3,22,0,39,8,44
		c9,6,9,11,1,21c-6,7-12,48-12,91c0,71,2,80,27,107c18,20,45,34,80,43l54,13l-27,18c-25,16-26,16-23-1c2-13-4-18-23-18
		c-14-1-39-10-55-20c-16-11-32-18-36-17c-5,1-7-1-5-5c1-5-2-9-7-10c-6-2-9,20-7,50c3,65-14,54-28-18c-5-28-14-63-20-79
		c-10-24-15-27-39-21c-36,8-107,88-84,93c10,2,21,8,27,13c5,5,18,9,28,9c11,0,37,16,58,35C1752,2551,1752,2562,1711,2534z"/>
	<path class="st0" d="M1420,2503c0-2,6-11,14-18c12-12,15-12,19-1c3,8-2,16-14,19C1429,2506,1420,2506,1420,2503z"/>
	<path class="st0" d="M1989,2442c21-17,23-25,19-66c-6-46-3-52,18-38c17,12,25,42,9,36c-10-4-13,2-11,23c3,22,8,27,25,26
		c31-4,17,13-16,20c-16,3-37,9-48,12C1968,2461,1969,2459,1989,2442z"/>
	<path class="st0" d="M1874,2421c-4-17-12-32-20-35s-14-13-14-22c0-13,7-12,44,10c58,34,66,33,64-10c-1-29-5-35-20-31
		c-10,3-21-1-26-8c-4-6-20-19-37-28c-21-11-25-16-12-17c11,0,24-14,32-34c8-19,27-43,41-53c15-10,38-28,51-41l25-23l-26-26
		c-15-14-29-36-32-49c-4-15-18-27-40-34c-41-14-51-27-21-26c12,1,30,9,41,18c18,16,20,15,55-12c40-32,91-49,91-31c0,6-6,11-14,11
		c-20,0-86,40-86,51c0,5,12,15,26,21c24,11,29,10,50-17c12-16,31-29,42-30c22-2,57,48,49,70c-3,7,1,16,10,19c9,4,14,9,11,11
		c-13,14-38-9-36-32c4-37-25-53-52-28c-12,11-18,25-15,35c4,12-1,19-16,23c-20,5-21,8-8,23c12,16,12,17-3,11c-13-4-18-1-18,11
		c-1,25-44,70-76,78l-27,7l24,18l24,19h-22c-31,0-29,28,2,36c29,7,40,24,49,76c7,36,5,38-30,53C1899,2458,1880,2455,1874,2421z
		 M2010,2085c0-7-9-17-20-20s-20-11-20-16c0-6-4-7-10-4c-6,4-1,18,12,35C1993,2109,2010,2111,2010,2085z"/>
	<path class="st0" d="M1457,2383c4-10,24-52,46-93c35-67,60-97,137-165l23-20l-12,22c-6,12-34,45-62,73c-27,27-68,84-90,125
		C1460,2397,1443,2420,1457,2383z"/>
	<path class="st0" d="M2358,2353c-4-82-3-123,4-123c3,0,6,36,6,80C2368,2392,2362,2420,2358,2353z"/>
	<path class="st0" d="M2185,2349c7-10,77-30,84-24c8,8-3,14-47,23C2199,2354,2183,2354,2185,2349z"/>
	<path class="st0" d="M2188,2291c17-17,32-35,32-40c0-6,5-11,10-11c6,0,10,4,10,9c0,14-57,71-71,71C2161,2320,2170,2307,2188,2291z"
		/>
	<path class="st0" d="M1320,2295c0-2,18-14,40-25c49-25,53-19,6,9C1333,2300,1320,2304,1320,2295z"/>
	<path class="st0" d="M2107,2285c-8-19,13-31,24-14c13,20,11,29-5,29C2118,2300,2110,2293,2107,2285z"/>
	<path class="st0" d="M2032,2267c9-9,21-17,27-17s11-7,11-16c0-8,5-12,10-9c16,10,12,32-7,38c-10,2-27,8-38,13
		C2016,2283,2016,2283,2032,2267z"/>
	<path class="st0" d="M2002,2245c6-13,15-22,19-19c11,7,1,31-16,38C1994,2268,1993,2264,2002,2245z"/>
	<path class="st0" d="M2581,2223c-1-50-3-54-39-77c-21-13-72-41-113-61c-155-79-167-85-134-79c75,16,202,56,239,77
		c41,23,75,73,75,112c0,11-6,34-14,50l-13,30L2581,2223z"/>
	<path class="st0" d="M1293,2237c4-13,76-39,97-35c8,2-11,13-43,25C1315,2238,1291,2243,1293,2237z"/>
	<path class="st0" d="M1460,2196c14-7,29-10,34-8c11,6-20,20-44,21C1442,2209,1446,2204,1460,2196z"/>
	<path class="st0" d="M2030,2200c0-16,41-90,51-90c4,0,4,10-1,23c-6,12-15,34-21,50C2048,2209,2030,2220,2030,2200z"/>
	<path class="st0" d="M2216,2177c-30-40-35-64-5-27c24,31,41,60,35,60C2243,2210,2230,2195,2216,2177z"/>
	<path class="st0" d="M1491,2171c-9-6-6-8,13-8c14,0,23,3,20,8C1517,2182,1509,2182,1491,2171z"/>
	<path class="st0" d="M1860,2128c-27-36-44-78-22-52c38,43,72,94,63,94C1895,2170,1877,2151,1860,2128z"/>
	<path class="st0" d="M2624,2138c6-19-12-78-23-78c-4,0-16-7-27-15c-18-13-16-14,23-15c38,0,42,3,48,29c4,17,0,42-10,62
		C2627,2140,2622,2147,2624,2138z"/>
	<path class="st0" d="M1355,2130c26-11,45-12,45-2c0,4-15,8-32,9C1341,2139,1339,2137,1355,2130z"/>
	<path class="st0" d="M2110,2125c0-8,7-15,15-15s15,4,15,9s-7,11-15,15C2116,2137,2110,2134,2110,2125z"/>
	<path class="st0" d="M1607,2104c-10-11,3-24,24-24c30,0,22-20-8-21c-21-1-23-2-8-6c11-3,25-9,32-15c17-13,25,6,14,35
		c-5,13-17,27-26,31C1615,2111,1615,2111,1607,2104z"/>
	<path class="st0" d="M1790,2085c0-14,4-25,9-25c4,0,6,11,3,25c-2,14-6,25-8,25S1790,2099,1790,2085z"/>
	<path class="st0" d="M1708,2067c12-13,22-30,22-39s8-22,17-29c11-10,14-10,9-1c-4,6-2,12,3,12c6,0,11-4,11-10c0-5,5-10,11-10
		c5,0,7,5,4,10c-3,6,3,10,14,10c14,0,19,5,15,15c-5,11-10,12-25,2c-16-10-23-6-53,26c-18,20-37,37-42,37
		C1690,2090,1696,2080,1708,2067z"/>
	<path class="st0" d="M1754,2067c3-10,6-24,6-30c0-8,4-7,12,1c10,10,8,16-6,30C1748,2084,1747,2084,1754,2067z"/>
	<path class="st0" d="M1470,2010l-25-8l28-1c15-1,27,4,27,9c0,6-1,10-2,9C1496,2018,1484,2014,1470,2010z"/>
	<path class="st0" d="M1668,1970c5-54-6-76-45-91c-37-14-27-24,24-24c30,0,48-4,48-12c0-6,3-14,7-18s4-14,1-23c-4-12,1-10,18,6
		l24,23l-25,19c-20,15-24,26-22,60c3,43-14,110-27,110C1666,2020,1665,1998,1668,1970z"/>
	<path class="st0" d="M2110,1977c-14-17-28-38-32-47c-6-15-12-16-50-6c-24,6-57,21-75,34c-36,26-51,29-32,6c16-19,63-45,109-59
		c29-10,40-8,65,7c17,10,26,18,21,18c-4,0-1,12,8,26C2150,1995,2139,2011,2110,1977z"/>
	<path class="st0" d="M2640,2000c-8-5-82-10-165-10c-93,0-173-6-210-14c-33-8-62-13-64-11s-17-9-35-25c-17-17-35-30-39-30
		c-5,0-33-24-64-52l-55-53h-92l-92,1l-158-183c-87-101-163-183-168-183s-21-9-35-20c-17-13-33-18-49-14c-15,4-24,2-24-5
		c0-6,3-10,8-9c4,1,22-2,40-6c21-5,38-4,46,3c7,6,21,9,29,5c12-4,18,2,23,20c9,38,38,35,31-4c-4-17-2-32,5-36c7-5,9,10,6,50
		c-3,36-1,56,6,56c6,0,19,14,28,30c17,30,44,48,54,37c4-3-6-21-20-40c-36-47-33-67,5-28c26,28,30,38,25,67c-6,30-2,39,46,92
		c29,33,68,76,86,97c26,29,41,37,65,36c133-4,131-5,251,106c65,60,86,73,125,80c54,9,254,8,306-1c34-7,37-10,32-34
		c-11-59-39-149-73-231c-20-47-40-95-44-106c-5-11-24-55-44-98s-36-82-36-87s-9-6-22-1c-24,9-60-2-90-27c-20-17-24-52-7-69
		c6-6,13-38,14-70c1-33,10-74,19-91l17-32l-33-20c-18-11-39-18-45-15c-7,2-13-1-13-6c0-7,9-9,23-5c12,4,37,9,55,13c27,5,32,3,32-14
		c0-35-36-55-132-74c-118-23-174-24-182-3c-11,28-6,44,12,45c15,0,14,2-3,10c-29,15-55,72-62,141c-6,63-22,88-53,88
		c-28,0-53-54-45-96c5-28,1-39-27-69c-18-20-51-42-73-50s-32-14-23-15c29,0,105,38,122,61c9,13,16,18,16,10c0-26-41-69-80-85
		c-45-18-165-22-175-6c-4,6,13,10,42,11c51,1,49,4-8,13c-53,9-91,67-93,140c0,30,5,61,12,69c15,17,2,30-21,21c-20-7-41-87-33-125
		c10-51,71-134,112-154c71-33,193-3,238,58c15,21,21,45,22,90c3,104,3,107,19,107c12,0,15-14,15-62c0-45,7-78,24-114
		c13-28,31-76,40-106c14-51,19-56,48-60c17-3,68,1,112,9c45,8,90,16,102,17c12,2,38,11,59,22l39,19l-3,79c-2,62-7,85-23,105
		c-17,22-19,35-14,81c6,48,4,58-14,72c-36,32-25,43,41,43h61l88,206c49,113,101,253,116,310s34,112,42,122
		C2674,2011,2664,2016,2640,2000z M2270,980c-8-5-24-10-35-10c-17,0-17,2-5,10c8,5,24,10,35,10C2282,990,2282,988,2270,980z
		 M2206,972c-3-5-30-15-61-22c-42-10-58-11-67-2s-3,12,28,13c21,1,50,5,64,9C2204,981,2212,981,2206,972z"/>
	<path class="st0" d="M1805,1989c-4-6,2-13,14-16s21-13,21-23s7-23,15-30c12-10,13-16,4-26c-16-19-18-18-64,22c-36,32-38,35-14,29
		c16-4,30-2,33,4c5,7-8,11-38,11c-25,0-47-4-50-9c-4-5,9-21,26-37c18-15,33-30,33-33c1-17,27-51,39-51c7,0,21,10,32,21
		c17,19,26,21,79,15c57-5,59-5,33,10c-30,16-35,29-15,37c6,3-2,3-19,0c-24-4-34,0-46,19c-23,33-57,68-68,68
		C1815,2000,1808,1995,1805,1989z"/>
	<path class="st0" d="M1374,1838c-32-30-44-48-44-69c0-16,5-29,10-29c6,0,10,6,10,13c0,24,50,67,78,67c49-1,161-37,196-63l34-27
		l15,23c14,21,13,25-11,46c-33,30-59,39-161,61l-84,18L1374,1838z"/>
	<path class="st0" d="M1720,1775c0-9,6-12,15-9c8,4,12,10,9,15C1736,1795,1720,1791,1720,1775z"/>
	<path class="st0" d="M1382,1750l-32-20l1-82c1-46,1-94,0-108c-2-32-44-80-71-80c-25,0-25,8,0,40c11,14,20,35,20,47s12,34,27,48
		c23,21,25,25,10,25c-39,0-55-19-67-77c-7-32-28-87-47-122c-31-58-33-66-19-77c9-6,16-24,16-40c0-46,11-78,21-62c7,10,9,9,9-4
		c0-10-6-18-12-18c-12-1-333-372-565-652c-84-101-113-126-113-94c0,22-49,56-81,56c-55,0-88-78-53-128c14-21,14-22-8-22
		c-25,0-124,45-227,104c-36,20-69,35-75,33c-18-7-68-106-62-122c16-43,369-166,410-143c9,5,89,93,179,197c89,103,257,297,374,432
		l211,244l63,2c50,2,68,7,88,27c14,13,45,35,69,50c23,14,42,28,42,30s-17,2-37-1c-34-4-44,0-87,38c-28,25-44,35-38,23
		c6-11,30-37,53-56c39-34,40-36,20-43c-16-5-34,1-61,19c-33,22-40,23-50,11c-17-20-32-8-20,15c13,24,13,26-4,43c-22,22-25,87-3,87
		c6,0,23,20,36,44c13,25,32,53,42,62c18,16,19,16,19-18c0-39-44-98-73-98c-14,0-32-28-24-37c2-2,15,0,28,5c19,7,35,1,88-36
		c57-39,70-43,105-39c48,7,76,31,58,49c-10,10-15,10-21-1c-5-7-13-11-19-7c-6,3-13,2-17-4c-12-20-44-12-103,26c-2,1-5,10-6,21
		c-2,13-10,17-29,15c-15-2-27,1-27,7s9,11,20,11c12,0,26,12,35,30c8,16,40,57,70,91s55,65,55,69s-16,11-36,15c-59,11-89,24-77,36
		c7,7,30,3,72-11l62-21l27,32c15,18,38,43,52,56l25,24l-25,19c-22,16-80,36-160,54C1424,1767,1402,1762,1382,1750z M1524,1714
		c41-14,47-20,42-38c-3-11-6-24-6-27c0-13-45-18-102-12c-51,5-58,8-53,24c4,12,1,21-9,25c-19,7-21,30-3,37
		C1418,1734,1478,1729,1524,1714z M1445,1548c7-7,6-12-2-15c-7-3-13-11-13-18s-11-20-24-29c-23-14-25-14-28,2c-2,9-2,32,1,50
		c3,31,6,33,30,27C1423,1562,1440,1554,1445,1548z M1335,1153c-24-17-88-18-83,0c5,12,75,27,92,18C1349,1169,1345,1161,1335,1153z
		 M1169,1081c-72-81-104-98-37-20c23,28,52,63,63,79c11,17,24,25,29,20S1206,1121,1169,1081z M1085,982c-6-4-38-40-73-80
		c-34-40-62-70-62-67c0,12,133,165,139,159C1092,991,1090,986,1085,982z M901,772c-12-22-51-58-51-47c0,9,50,65,57,65
		C909,790,906,782,901,772z M519,458c12-19,11-23-5-35c-9-7-15-15-12-19c4-3,16,4,27,15c22,22,41,27,41,12c0-5-15-26-34-47
		s-32-44-29-51c3-8-9-15-36-19c-23-4-44-11-47-15c-3-5-12-9-20-9s-12,5-9,10c6,9-18,14-55,12c-8,0-17,4-21,9c-3,6-41,19-83,29
		c-73,19-136,51-136,70c0,4,8,18,18,30l18,23l40-25c21-13,54-30,72-37c17-8,32-17,32-21s19-12,43-19c23-7,52-17,65-22s28-6,34-3
		c6,4,17-2,25-12c14-19,15-19,13,1c-4,35,0,45,15,45c8,0,15,5,15,10c0,6-5,9-11,8c-6-2-16,10-21,25c-8,22-6,32,7,47
		C485,492,500,488,519,458z"/>
	<path class="st0" d="M1670,1724c0-9,5-14,12-12c18,6,21,28,4,28C1677,1740,1670,1733,1670,1724z"/>
	<path class="st0" d="M2070,1673c-67-9-98-23-104-49c-10-38,0-41,19-5c12,24,22,31,46,31c34,0,31-19-4-21c-18-1-19-2-4-6
		c14-4,16-8,6-19c-6-8-18-14-25-14c-8,0-14-4-14-9s26-7,58-4c50,5,93-1,194-23c20-5,33,0,52,19c31,31,26,51-17,67c-18,7-41,16-52,20
		c-11,5-27,9-35,9s-33,1-55,4C2113,1675,2084,1675,2070,1673z M2170,1639c0-7-11-9-28-6c-15,3-34,2-41-2c-8-5,1-10,26-14
		c28-5,41-3,49,8c13,17,40,20,49,5c3-5,22-10,41-10c41,0,41-14,2-38c-22-13-29-14-43-2c-9,7-48,15-92,17c-42,2-79,5-81,7s3,13,10,25
		c10,17,23,21,60,21C2151,1650,2170,1646,2170,1639z"/>
	<path class="st0" d="M1920,1046c0-22-69-74-120-91c-64-21-133-11-176,28c-19,16-34,25-34,20c0-19,39-119,68-176l30-58l-23-15
		c-34-22-69-95-62-127c11-42,36-60,74-54c48,8,89,32,196,114c76,59,96,79,107,112c15,47,10,58-19,40c-33-21-39,1-7,26
		c33,26,46,24,46-6c0-11,5-17,10-14c17,10,11-37-7-57c-9-10-11-18-6-18c6,0,16,7,23,15c16,20,26,12,34-27c3-18,26-82,51-142
		c25-59,45-114,45-120s9-29,20-50c17-34,18-45,8-80c-14-51-13-119,2-146c13-24,25-23,142,11c59,17,85,37,76,59c-2,3,8,22,21,43
		c23,38,23,40,9,100c-9,34-14,86-12,116c6,88-34,392-48,367c-31-55-282-111-330-73c-9,6-18,23-20,36s-13,30-26,39c-20,13-22,13-17,0
		c7-17-20-44-29-29c-3,5-2,21,4,35c6,16,6,27,0,31s-10,28-10,56c0,27-4,49-10,49C1925,1060,1920,1054,1920,1046z M1912,963
		c-6-10-22-25-36-33c-14-7-26-17-26-22s10-2,22,6c45,32,51,19,33-67c-4-20-15-41-24-46s-12-13-8-17s17,2,30,13c18,18,24,19,34,8
		s8-18-8-37c-11-13-18-17-14-10c12,23-10,12-54-28c-43-39-65-48-74-32c-2,4-2,1,0-6c3-15-20-42-36-42c-6,0-11-4-11-10
		c0-5-9-10-21-10c-11,0-18-4-15-8c2-4-7-7-21-6c-33,1-49,36-28,58c8,8,15,22,15,30c0,9,5,16,10,16c6,0,10,10,10,23c0,16,3,18,9,8
		c17-27,22,24,6,63c-18,42-12,60,16,53c11-3,19-1,19,4s-9,9-20,9c-27,0-80,27-80,41c0,7,7,8,18,4c9-4,42-9,72-12c50-4,61-1,120,35
		c36,21,66,38,68,36C1920,983,1917,973,1912,963z M2356,768c-20-38-20-42-2-35c11,5,16-13,21-86c6-88,4-113-11-159c-4-12-2-18,4-14
		c16,10,21-46,8-107c-12-61-20-67-49-42c-9,8-27,15-40,15c-16,0-11-6,21-20c23-10,42-25,42-32c0-12-72-48-96-48c-6,0-23,12-38,27
		c-25,25-25,27-10,45c10,10,13,18,8,18s0,7,10,15c11,8,14,15,8,15c-8,0-12,13-12,33c1,17-19,87-44,155c-26,68-44,127-41,132
		s-3,11-13,14s-23,19-29,36c-10,28-10,30,10,30c16,0,18,3,8,9c-19,12-5,18,75,32c38,6,80,16,94,21c22,8,23,7,10-6c-8-8-26-17-40-20
		c-62-14-94-24-75-25c34-2,156,36,174,53c15,16,16,16,19-4C2370,809,2364,786,2356,768z M2410,398c0-16-3-19-11-11c-6,6-8,16-5,22
		C2405,426,2410,422,2410,398z"/>
	<path class="st0" d="M2409,218c-16-41-37-63-70-71c-13-3-35-20-47-37c-21-28-21-30-4-30c10,0,47,26,80,58c47,43,62,64,62,85
		C2430,258,2425,257,2409,218z"/>
	<path class="st0" d="M2241,175c-1-40,12-60,35-51c15,6,16,9,5,16c-8,4-20,21-27,37l-12,28L2241,175z"/>
</g>
</svg>
